<svg xmlns="http://www.w3.org/2000/svg" version="1.1" xmlns:xlink="http://www.w3.org/1999/xlink" viewBox="0 0 1422 800" style="overflow: hidden; display: block;" width="1422" height="800"><defs></defs><g id="two-0" transform="matrix(1 0 0 1 0 0)" opacity="1"></g><path d="M 555.8711560653467 324.61316750124894 Q 555.8711560653467 324.61316750124894 569.3009017354129 323.54157434385434 582.7306474054791 322.4699811864597 603.3947132520886 319.51054375584465 624.0587790986983 316.5511063252296 639.2595292557073 313.6298343393231 654.4602794127163 310.7085623534166 671.8904369344531 307.74482023136017 689.3205944561898 304.78107810930373 701.7919879962689 302.2743577726175 714.2633815363479 299.7676374359313 732.1506298738315 296.11799696714274 750.037878211315 292.4683564983542 768.9852144375566 289.1820309994976 787.932550663798 285.89570550064104 803.912718071596 284.05765886499677 819.8928854793941 282.2196122293525 833.6131100740413 281.0156308024561 847.3333346686884 279.8116493755597 863.2526071312657 279.2981593110892 879.1718795938431 278.7846692466187 888.041429936683 278.21649979760934 896.9109802795231 277.6483303486 907.5235203389564 277.7428938379619 918.1360603983898 277.8374573273238 923.8952583571297 278.6600646647785 929.6544563158695 279.4826720022331 930.9206467327026 280.2660956196713 932.1868371495358 281.04951923710956 933.136586291004 282.19623947514526 934.0863354324722 283.3429597131809 934.6202043127543 284.7329146601869 935.1540731930363 286.12286960719297 935.216165599439 287.61053061330534 935.2782580058417 289.0981916194177 934.8620728470239 290.52780018459214 934.4458876882062 291.9574087497665 933.5949996601582 293.1792844798491 932.7441116321104 294.40116020993173 931.5476089359818 295.2873723934391 930.351106239853 296.17358457694644 928.9342630237742 296.631346564328 927.5174198076953 297.08910855170956 926.0285799304002 297.070492542049 924.5397400531049 297.0518765323885 923.1347854427617 296.5588316268115 921.7298308324184 296.0657867212346 920.5558606076021 295.14993485150626 919.3818903827857 294.234082981778 918.5618195359326 292.9913140804203 917.7417486890795 291.7485451790626 917.3614388543328 290.30897747810684 916.9811290195862 288.869409777151 917.0803987370359 287.38376639489616 917.1796684544857 285.89812301264135 917.7481241585103 284.5219512033813 918.3165798625349 283.1457793941213 919.2947040908653 282.02316470955964 920.2728283191955 280.900550024998 921.5582112069255 280.1490305189498 922.8435940946556 279.39751101290165 924.301655714132 279.0957709760321 925.7597173336084 278.7940309391626 927.2377982483811 278.9736626329836 928.7158791631537 279.15329432680454 930.0592239112705 279.7954902655548 931.4025686593872 280.437686204305 932.4705286911117 281.4752083036741 933.5384887228361 282.5127304030432 934.2192483409326 283.836949825348 934.9000079590292 285.16116924765277 935.12229145178 286.63343986981795 935.3445749445308 288.10571049198313 935.0851091715676 289.57188519122633 934.8256433986046 291.03805989046947 934.1115944948492 292.3446297887474 933.3975455910938 293.65119968702527 932.3036746652599 294.6613665710872 931.2098037394261 295.67153345514913 929.8506393662024 296.2795325855757 928.4914749929786 296.88753171600223 927.009322041026 297.02970542334157 925.5271690890736 297.1718791306809 924.0772093637122 296.8333417902444 922.6272496383507 296.4948044498078 922.6285255482937 296.49533149031254 922.6298014582369 296.4958585308173 918.9427299169129 295.4535496803479 915.2556583755887 294.41124082987847 906.2567579161098 293.0409791719288 897.2578574566307 291.6707175139792 888.4215101191483 291.5405479144489 879.5851627816656 291.4103783149186 864.0204512147159 291.9274761315754 848.455739647766 292.44457394823223 834.9101282273953 293.6655051828118 821.3645168070244 294.88643641739134 805.7560708947893 296.71866803680535 790.1476249825542 298.55089965621937 771.4059043620266 301.86512439732076 752.6641837414988 305.17934913842214 734.7915792272095 308.91882073470015 716.9189747129201 312.65829233097816 704.2759734167963 315.3253677453906 691.6329721206725 317.9924431598031 674.3951364788713 321.0961423127353 657.1573008370701 324.19984146566753 641.6712259723354 327.4133487980937 626.1851511076006 330.62685613051985 605.1757778520373 333.9605991846766 584.1664045964741 337.29434223883334 570.7798264140013 338.81788229066717 557.3932482315283 340.34142234250106 556.4411564164435 340.3182244452113 555.4890646013587 340.29502654792157 554.570192390247 340.0446451859217 553.6513201791353 339.79426382392177 552.8190724680795 339.3312511737352 551.9868247570238 338.86823852354865 551.2895718220936 338.21950490215886 550.5923188871635 337.57077128076907 550.0705851016974 336.77402111673183 549.5488513162311 335.9772709526946 549.2329598723537 335.0788114029789 548.9170684284763 334.18035185326323 548.825378951748 333.23240142911254 548.7336894750198 332.2844510049618 548.871530962136 331.34210462956696 549.0093724492523 330.39975825417207 549.3687335465054 329.51778514314697 549.7280946437585 328.6358120321219 550.2880892672916 327.86547250411866 550.8480838908248 327.09513297611545 551.5761651268069 326.4811992006959 552.3042463627892 325.8672654252764 553.1580980955764 325.44541926231346 554.0119498283635 325.02357309935053 554.9419461551281 324.81833226765593 555.8719424818927 324.6130914359614 555.8715492736196 324.61312946860517 Z" fill="%, 100%)"></path></svg>