<svg xmlns="http://www.w3.org/2000/svg" width="2400" height="800" viewBox="284 366 1756 32">
  <path d="M 284.19598719239843 392.8289719565771 Q 284.19598719239843 392.8289719565771 284.23209833840724 393.42618904253106 284.26820948441605 394.02340612848496 284.0226353039785 394.5689935041855 283.77706112354105 395.1145808798861 283.30606321346534 395.4835432510375 282.83506530338957 395.85250562218886 282.2465503437138 395.9603128801042 281.6580353840381 396.0681201380196 281.08683347505144 395.8900733975514 280.5156315660647 395.7120266570833 280.09260634922214 395.2889168267358 279.6695811323796 394.86580699638824 279.49164863585344 394.29456948947774 279.31371613932725 393.72333198256723 279.42164109807766 393.13483859611324 279.529566056828 392.5463452096592 279.8986226201815 392.07542110147716 280.2676791835351 391.60449699329513 280.81331566315964 391.3590319352435 281.35895214278423 391.1135668771919 281.9561619945647 391.14979746589484 282.5533718463451 391.18602805459784 283.06533295066436 391.4956537807344 283.57729405498367 391.80527950687093 283.88664062369105 392.317125731724 Z M 302.0516645169732 394.48060892983773 Q 302.0516645169732 394.48060892983773 352.42491713509514 392.3431574582702 402.79816975321717 390.20570598670264 495.7674022409347 388.582480755835 588.7366347286522 386.9592555249673 694.6795434538014 386.2809899852483 800.6224521789507 385.60272444552925 893.1087117637614 386.7828732661138 985.5949713485722 387.96302208669846 1111.7617730145191 388.47053855488537 1237.928574680466 388.9780550230722 1366.0081287994517 388.46811790120637 1494.0876829184372 387.95818077934047 1641.9417582088013 381.90503996263647 1789.7958334991654 375.85189914593246 1914.6971603191157 371.09126585835395 2039.598487139066 366.33063257077544 2039.8038501891629 366.35630406172896 2040.0092132392597 366.3819755526825 2040.1956283085713 366.47187788705946 2040.3820433778828 366.56178022143644 2040.5299927594433 366.70650060109574 2040.677942141004 366.851220980755 2040.7719354955093 367.03560714374373 2040.8659288500146 367.2199933067325 2040.896125048436 367.42473997311254 2040.9263212468575 367.62948663949265 2040.8895587392494 367.8331567792462 2040.8527962316414 368.03682691899974 2040.7529240622548 368.21809621473085 2040.653051892868 368.399365510462 2040.500526704201 368.53925501905724 2040.3480015155344 368.6791445276525 2040.1587927351036 368.76300778063467 2039.9695839546728 368.84687103361676 2039.7635017917353 368.86592752626086 2039.5574196287978 368.88498401890496 2039.3560409402137 368.8372385314007 2039.1546622516296 368.78949304389647 2038.9790714392525 368.6799445413892 2038.8034806268752 368.57039603888194 2038.6720620951123 368.4105142785021 2038.5406435633495 368.2506325181223 2038.4671568671674 368.0571571623864 2038.3936701709856 367.8636818066505 2038.3858093868735 367.65686977637665 2038.3779486027613 367.45005774610274 2038.4365367568907 367.2515623154536 2038.49512491102 367.0530668848044 2038.6140278081875 366.8836705777667 2038.732930705355 366.714274270729 2038.8996991808403 366.5917129253658 2039.0664676563254 366.46915158000263 2039.263641006722 366.4062574015266 2039.460814357119 366.3433632230506 2039.6677484805923 366.3467212485506 2039.8746826040654 366.35007927405053 2040.069711443262 366.4193379173703 2040.2647402824584 366.48859656069 2040.427444266432 366.6165044235913 2040.5901482504057 366.7444122864927 2040.7034922290845 366.9175773819656 2040.8168362077631 367.0907424774385 2040.8689530366596 367.2910343742757 2040.921069865556 367.4913262711129 2040.906502898927 367.69777435484366 2040.8919359322983 367.9042224385744 2040.8122103353955 368.0952115403351 2040.7324847384928 368.28620064209576 2040.5959478023574 368.44173415251583 2040.4594108662218 368.5972676629359 2040.280358044109 368.7010611824175 2040.1013052219964 368.8048547018991 2039.8984833916475 368.8460410215537 2039.6956615612983 368.88722734120824 2039.6958533059073 368.8872200531265 2039.6960450505167 368.8872127650448 Z" fill="hsl(237, 91%, 46%)"></path>
</svg>
