<svg xmlns="http://www.w3.org/2000/svg" version="1.1" xmlns:xlink="http://www.w3.org/1999/xlink" viewBox="0 0 2400 800" style="overflow: hidden; display: block;" width="2400" height="800"><defs></defs><g id="two-0" transform="matrix(1 0 0 1 0 0)" opacity="1"></g><path d="M 652.0295411681554 315.8982548521225 Q 652.0295411681554 315.8982548521225 676.1349510477618 307.9110109899246 700.2403609273681 299.9237671277267 731.010926445382 293.6003527310495 761.7814919633958 287.2769383343723 787.3214321894174 285.3267783988852 812.861372415439 283.37661846339813 835.4496440436753 284.74952819223824 858.0379156719118 286.1224379210783 874.1832439081455 287.44268650121285 890.3285721443792 288.7629350813474 903.8622267371206 292.2656363018933 917.3958813298619 295.7683375224392 928.9792199625997 299.4540049778518 940.5625585953374 303.1396724332644 954.3791586913783 312.0749663024616 968.1957587874192 321.01026017165873 978.4894505173997 331.4366878873157 988.7831422473803 341.8631156029727 1004.8827335703843 369.0058651070664 1020.9823248933882 396.14861461116016 1030.7347361268032 417.18053661056945 1040.4871473602184 438.21245860997874 1049.752163347838 464.70516745840126 1059.0171793354575 491.1978763068238 1064.4276807841193 518.5782405278826 1069.8381822327808 545.9586047489413 1072.1363495040935 569.2990984494013 1074.434516775406 592.6395921498614 1076.137709339553 611.2984344372926 1077.8409019037003 629.9572767247239 1078.5656360265195 640.8207394271907 1079.2903701493387 651.6842021296575 1079.5981138325888 657.0303924140813 1079.9058575158385 662.3765826985052 1080.178343806347 666.6561946944103 1080.4508300968553 670.9358066903154 1080.4235117846279 671.1644030349521 1080.3961934724007 671.3929993795888 1080.2973118738016 671.6009056287077 1080.1984302752026 671.8088118778265 1080.0383383197072 671.974260192263 1079.878246364212 672.1397085066994 1079.6737057218206 672.2453764042577 1079.4691650794296 672.3510443018162 1079.2415912093943 672.3858683257284 1079.0140173393593 672.4206923496407 1078.7872372859465 672.3810264154108 1078.560457232534 672.3413604811808 1078.3582149272002 672.2313576225931 1078.1559726218663 672.1213547640056 1077.9994428873665 671.9525323093924 1077.8429131528667 671.7837098547791 1077.748484693723 671.5737435597032 1077.6540562345792 671.3637772646272 1077.6316157353906 671.1346506556085 1077.609175236202 670.9055240465899 1077.6610722231571 670.6812267400765 1077.7129692101125 670.4569294335631 1077.8337700549778 670.2609454167557 1077.9545708998432 670.0649613999482 1078.1316277222732 669.917810251141 1078.3086845447028 669.7706591023339 1078.52345944865 669.6877475856513 1078.7382343525976 669.6048360689689 1078.9682403489242 669.5948450420942 1079.1982463452507 669.5848540152194 1079.4194017454254 669.6488295413037 1079.6405571456 669.712805067388 1079.8297069208452 669.8440488919623 1080.0188566960906 669.9752927165365 1080.1561968150072 670.1600635765229 1080.293536933924 670.3448344365094 1080.3646878498078 670.5637867740925 1080.4358387656914 670.7827391116756 1080.4333509588666 671.0129485593127 1080.4308631520419 671.2431580069499 1080.35499709654 671.460521574704 1080.2791310410385 671.6778851424581 1080.1378299328976 671.859644807407 1079.9965288247565 672.0414044723559 1079.8045869272985 672.1685299495995 1079.6126450298405 672.295655426843 1079.390158710397 672.354836645356 1079.1676723909536 672.4140178638689 1078.937936025901 672.3990585344507 1078.7081996608485 672.3840992050325 1078.4952667082525 672.296565573422 1078.2823337556563 672.2090319418115 1078.1084983518624 672.0580888023451 1077.9346629480685 671.9071456628786 1077.818125705742 671.7085968021034 1077.7015884634154 671.5100479413283 1077.654550862591 671.2846814773793 1077.6075132617661 671.0593150134304 1077.6075225248906 671.0595282621946 1077.6075317880147 671.0597415109588 1077.5073711707628 666.7901312856329 1077.4072105535108 662.5205210603069 1077.0996445851438 657.1857159037711 1076.792078616777 651.8509107472353 1076.0690253240273 641.0179868308079 1075.3459720312776 630.1850629143805 1073.6426059705568 611.5350531849283 1071.9392399098363 592.8850434554762 1069.6573424824712 569.6643287396021 1067.3754450551062 546.4436140237278 1062.0093236833495 519.2339063391657 1056.6432023115926 492.02419865460365 1047.422193441426 465.64759625220876 1038.2011845712595 439.27099384981386 1028.5046382463731 418.3531466291242 1018.8080919214866 397.4352994084345 1002.8868996054719 370.5324026719921 986.9657072894572 343.6295059355497 976.882091295736 333.38584762682933 966.7984753020148 323.142189318109 953.2805905713769 314.3602103208944 939.762705840739 305.5782313236798 928.2539353282123 301.9297889383167 916.7451648156856 298.28134655295355 903.4273012506815 294.83342081588376 890.1094376856772 291.3854950788139 873.9929468593388 290.092755438938 857.8764560330003 288.8000157990621 835.472871399578 287.46008531124176 813.0692867661559 286.12015482342133 787.7117483916754 288.092902227984 762.354210017195 290.06564963254664 731.7670823207923 296.40797280758574 701.1799546243897 302.75029598262483 677.1044425679609 310.8233594324387 653.028930511532 318.8964228822525 652.8422872004774 318.9344354211069 652.6556438894227 318.9724479599613 652.4653271574776 318.9646877915766 652.2750104255326 318.9569276231919 652.0920814900998 318.90384576891927 651.9091525546669 318.8507639146466 651.7442432540686 318.75544549435034 651.5793339534703 318.66012707405406 651.4420288240054 318.52811199880034 651.3047236945406 318.39609692354657 651.203002916785 318.2350579157118 651.1012821390293 318.0740189078771 651.0410577293654 317.893315562163 650.9808333197016 317.71261221644903 650.9656055236487 317.5227470197989 650.9503777275959 317.3328818231488 650.9810315853761 317.1448897497127 651.0116854431564 316.95689767627664 651.0864393511151 316.78170483419547 651.161193259074 316.60651199211424 651.2757025165687 316.4543005976011 651.3902117740633 316.302089203088 651.537821097668 316.18170578954357 651.6854304212726 316.0613223759992 651.8575607501639 315.979763633075 652.0296910790552 315.8982048901508 652.0296161236054 315.89822987113666 Z" fill="hsl(237, 91%, 46%)"></path><path d="M 985.1616821289062 678.6631164164944 Q 985.1616821289062 678.6631164164944 993.921851348877 678.7437961245585 1002.6820205688476 678.8244758326225 1009.3263264855836 678.8830534842319 1015.9706324023197 678.9416311358414 1021.0892862594083 679.7217120083451 1026.207940116497 680.5017928808489 1030.5951412287322 681.5877486507127 1034.9823423409678 682.6737044205765 1038.4477724858584 684.6671870399152 1041.913202630749 686.6606696592538 1044.093000898927 688.2499445570775 1046.2727991671047 689.8392194549011 1047.9606324692504 691.224701795607 1049.6484657713959 692.6101841363127 1050.9919650573825 693.0857329970975 1052.335464343369 693.5612818578822 1053.2962440568367 694.7681663434022 1054.2570237703044 695.9750508289221 1054.6703706996686 697.3519421736386 1055.0837176290327 698.728833518355 1055.2457605643754 700.0120910724982 1055.4078034997178 701.2953486266412 1056.5587566446484 703.6567533782008 1057.7097097895787 706.0181581297606 1058.8707433280215 708.3723054225478 1060.031776866464 710.726452715335 1061.4494993672474 712.275855833072 1062.867221868031 713.825258950809 1063.7385510465888 715.0351135279533 1064.6098802251468 716.2449681050975 1064.8236593466452 716.3556277968271 1065.0374384681436 716.4662874885568 1065.2665225455683 716.646103744253 1065.495606622993 716.8259199999491 1065.674999322057 717.0553359101746 1065.8543920211207 717.2847518204002 1065.9736670297257 717.5504337216737 1066.0929420383304 717.8161156229473 1066.145167087372 718.102622070684 1066.197392136414 718.3891285184206 1066.1795319035882 718.6798077444164 1066.1616716707626 718.9704869704121 1066.0747641936407 719.2484446843946 1065.9878567165188 719.5264023983771 1065.8369530617542 719.7754836849498 1065.6860494069895 720.0245649715225 1065.4799201020874 720.230293214607 1065.273790797185 720.4360214576914 1065.024416087031 720.5864397221333 1064.7750413768772 720.7368579865752 1064.4969149313424 720.8232239557778 1064.2187884858079 720.9095899249804 1063.9280750269745 720.9268840047558 1063.6373615681414 720.9441780845312 1063.350957375896 720.8913951421504 1063.0645531836508 720.8386121997695 1062.7991040831034 720.7188199823236 1062.533654982556 720.5990277648775 1080.5146704367014 684.7799686935598 1098.4956858908467 648.9609096222422 1119.501077603113 608.8969292171057 1140.506469315379 568.8329488119693 1152.3956298636608 547.4207829251575 1164.2847904119426 526.0086170383455 1173.0138468739256 511.0734697523781 1181.7429033359083 496.1383224664107 1186.9184567723782 486.8978803502088 1192.094010208848 477.6574382340069 1195.8299989879788 472.9086520627759 1199.5659877671094 468.1598658915448 1201.9570359345876 466.0922209612053 1204.3480841020657 464.02457603086583 1206.1652267434492 463.0419390003676 1207.9823693848327 462.05930196986935 1208.2100161771832 461.9892642857494 1208.4376629695337 461.9192266016295 1208.6757562485645 461.9255456003332 1208.9138495275956 461.93186459903694 1209.1374608641422 462.01387867973204 1209.3610722006886 462.09589276042715 1209.5467894287863 462.24501502721523 1209.7325066568842 462.39413729400326 1209.860885133727 462.59475460618717 1209.9892636105697 462.795371918371 1210.0468620757433 463.02647959040723 1210.104460540917 463.2575872624434 1210.0852484199133 463.4949882600632 1210.0660362989097 463.732389257683 1209.9720251058693 463.95122763376787 1209.878013912829 464.17006600985275 1209.7190466444795 464.3474293286589 1209.5600793761303 464.524792647465 1209.3527999474318 464.64211092269403 1209.145520518733 464.75942919792305 1208.9116311405862 464.8044191751894 1208.6777417624394 464.84940915245585 1208.4417307144772 464.8173603692636 1208.2057196665148 464.78531158607143 1207.9922973677596 464.6795795584809 1207.7788750690045 464.57384753089036 1207.6103868904743 464.4055024301008 1207.4418987119438 464.23715732931123 1207.335985410407 464.02382493181403 1207.23007210887 463.81049253431684 1207.1978228349558 463.5745087984443 1207.1655735610416 463.3385250625718 1207.210364822242 463.10459754776343 1207.2551560834424 462.87067003295505 1207.372298222886 462.6632910117621 1207.4894403623296 462.45591199056923 1207.666668567094 462.29679410125345 1207.8438967718585 462.1376762119376 1208.0626552021213 462.04347913951335 1208.2814136323839 461.94928206708903 1208.5187982227499 461.92986826990466 1208.7561828131159 461.91045447272035 1208.9873393343105 461.9678565804659 1209.218495855505 462.0252586882114 1209.4192221587393 462.1534666850532 1209.6199484619738 462.281674681895 1209.7692284503128 462.4672651567201 1209.918508438652 462.65285563154515 1210.0007124579106 462.8763972126482 1210.0829164771694 463.0999387937513 1210.0894377448317 463.3380266185816 1210.0959590124937 463.5761144434119 1210.0261147501137 463.8038206538606 1209.9562704877335 464.03152686430934 1209.8173734080194 464.22501056003387 1209.6784763283054 464.41849425575845 1209.4850689921686 464.55749764274174 1209.2916616560317 464.6965010297251 1209.2918594459627 464.696402832804 1209.2920572358937 464.69630463588294 1207.7114961138163 465.4011635635269 1206.130934991739 466.1060224911709 1203.9627534285555 468.00895628587193 1201.794571865372 469.91189008057296 1198.2383286380746 474.5056420859079 1194.6820854107773 479.09939409124274 1189.570180610615 488.4060273835966 1184.4582758104527 497.7126606759505 1175.8522829059116 512.6762626710288 1167.2462900013702 527.6398646661072 1155.5237707442277 549.0947994974497 1143.8012514870852 570.5497343287923 1122.9912189788677 610.7373574487942 1102.1811864706501 650.9249805687963 1083.6092091446308 683.6955714444215 1065.0372318186116 716.4661623200467 1065.2663338765165 716.6459556664361 1065.4954359344213 716.8257490128254 1065.6748515741792 717.055146982634 1065.8542672139372 717.2845449524426 1065.9735687901357 717.550214924887 1066.0928703663344 717.8158848973313 1066.1451240657598 718.1023861211305 1066.197377765185 718.3888873449297 1066.1795466003712 718.6795683554953 1066.1617154355574 718.9702493660609 1066.0748357546413 719.2482157694013 1065.9879560737254 719.5261821727418 1065.8370773278439 719.7752785484345 1065.6861985819623 720.0243749241273 1065.4800898509152 720.2301237791135 1065.2739811198678 720.4358726340997 1065.024621452787 720.5863158352605 1064.7752617857063 720.7367590364213 1064.4971439781593 720.8231528178367 1064.219026170612 720.9095465992519 1063.9283144426404 720.9268697502866 1063.6376027146687 720.9441929013215 1063.3511932455613 720.8914385996237 1063.0647837764539 720.838684297926 1062.799322698012 720.7189186259889 1062.53386161957 720.5991529540519 1062.0090380273725 720.2365316371249 1061.484214435175 719.8739103201981 1060.3591605114793 718.849931229451 1059.2341065877838 717.825952138704 1058.973062368946 716.091340520059 1058.7120181501086 714.356728901414 1057.258218611792 712.2952039270563 1055.8044190734754 710.2336789526985 1054.6243022891683 707.644208860037 1053.4441855048613 705.0547387673754 1052.519178906833 702.2814749796964 1051.5941723088047 699.5082111920174 1051.242054658121 697.8390328194282 1050.8899370074373 696.169854446839 1049.3830845187856 695.4691329792919 1047.876232030134 694.7684115117447 1046.2927226341417 693.3861989622578 1044.7092132381497 692.0039864127708 1042.6271019293674 690.5164053993873 1040.5449906205852 689.0288243860037 1037.4177655912868 687.2180133976306 1034.2905405619883 685.4072024092575 1030.0363465722712 684.4126138218214 1025.7821525825539 683.4180252343855 1020.8740490076586 682.7380749789595 1015.9659454327633 682.0581247235336 1009.3239830008055 682.1167023751431 1002.6820205688476 682.1752800267525 993.921851348877 682.2559597348165 985.1616821289062 682.3366394428806 984.9418923688922 682.3099512765189 984.7221026088781 682.2832631101572 984.5150870400428 682.2047497285552 984.3080714712075 682.1262363469531 984.1258618481384 682.0004609515381 983.9436522250691 681.8746855561233 983.7968385796198 681.7089582187866 983.6500249341706 681.5432308814499 983.5471400823128 681.3471836828242 983.444255230455 681.1511364841984 983.3912788446128 680.9361636966789 983.3383024587704 680.7211909091595 983.3383135289778 680.4997867612574 983.3383245991853 680.2783826133553 983.3913224820415 680.0634151245494 983.4443203648975 679.8484476357434 983.5472248209608 679.652410726583 983.6501292770239 679.4563738174227 983.7969594944727 679.2906611622791 983.9437897119217 679.1249485071356 984.1260119116193 678.999191333312 984.308234111317 678.8734341594882 984.5152575304553 678.7949414798354 984.7222809495937 678.7164488001828 984.9420733773254 678.6897826129305 985.1618658050572 678.6631164256783 985.1617739669817 678.6631164210863 Z" fill="hsl(237, 91%, 46%)"></path></svg>