<svg xmlns="http://www.w3.org/2000/svg" version="1.1" xmlns:xlink="http://www.w3.org/1999/xlink" viewBox="0 0 1422 800" style="overflow: hidden; display: block;" width="1422" height="800"><defs></defs><g id="two-0" transform="matrix(1 0 0 1 0 0)" opacity="1"></g><path d="M 860.444084649762 121.04075415366361 Q 860.444084649762 121.04075415366361 848.292596081822 146.10725747163752 836.141107513882 171.1737607896114 808.9013611292944 225.51494050136648 781.6616147447068 279.8561202131215 768.784343501336 306.39466134331167 755.9070722579654 332.93320247350186 748.7014046400357 348.5261849679358 741.495737022106 364.1191674623698 734.971004730483 378.9559543254817 728.4462724388598 393.7927411885936 722.6459664917785 407.87302852068274 716.8456605446972 421.9533158527718 712.2234754044894 434.8351234359408 707.6012902642814 447.71693101910967 704.7755476396517 457.06480254529174 701.949805015022 466.4126740714739 699.0124801551931 476.02295892796263 696.0751552953642 485.6332437844514 694.3994093773873 491.8586027539485 692.7236634594104 498.0839617234456 692.0172550867975 501.56503483529195 691.3108467141845 505.04610794713835 691.0695381464518 506.9562221930133 690.8282295787191 508.8663364388882 690.0882364860936 511.05249321809595 689.3482433934681 513.2386499973037 689.1567358301866 513.3893908136074 688.9652282669051 513.540131629911 688.735612898782 513.6218306091923 688.505997530659 513.7035295884738 688.2623151473495 513.7076328260357 688.0186327640399 513.7117360635976 687.7863969754023 513.6378139493843 687.5541611867646 513.5638918351709 687.3576871411736 513.419684034054 687.1612130955826 513.275476232937 687.0210716774757 513.0760813397604 686.8809302593687 512.8766864465839 686.8117943122154 512.6429811592986 686.742658365062 512.4092758720133 686.7517664407793 512.1657291958901 686.7608745164966 511.922182519767 686.8472729971527 511.6942938560862 686.9336714778088 511.4664051924054 687.0883144196721 511.27803454441107 687.2429573615353 511.08966389641677 687.4496536077709 510.960533720679 687.6563498540063 510.83140354494117 687.8934582530705 510.7750338049467 688.1305666521349 510.71866406495224 688.3732618920556 510.7409566873587 688.6159571319763 510.7632493097651 688.8388289570682 510.8618702511218 689.0617007821602 510.9604911924785 689.2414144535039 511.12511481419205 689.4211281248475 511.2897384359056 689.5388675736135 511.5031286013261 689.6566070223794 511.7165187667467 689.7000448972016 511.9563334692251 689.7434827720238 512.1961481717036 689.7080711159417 512.4372787485856 689.6726594598598 512.6784093254676 689.5621058826133 512.8956093417012 689.4515523053668 513.1128093579349 689.2774317956768 513.2833379144854 689.1033112859867 513.4538664710358 688.883854307181 513.559869183017 688.6643973283752 513.6658718949982 688.4225810840658 513.6962502504837 688.1807648397564 513.7266286059693 687.9419075545559 513.6782019831207 687.7030502693552 513.6297753602722 687.4921603640762 513.5076140392853 687.2812704587972 513.3854527182982 687.1204281621918 513.2023470217275 686.9595858655865 513.0192413251568 686.8656314085678 512.7943624677687 686.771676951549 512.5694836103804 686.7544473905683 512.3263764679054 686.7372178295876 512.0832693254306 686.7985171042277 511.8473872798602 686.8598163788678 511.6115052342897 686.9932264388925 511.40754519806177 687.1266364989173 511.2035851618338 687.1264838690535 511.20375178235213 687.1263312391897 511.20391840287044 687.6187838605975 509.82156779327033 688.1112364820054 508.43921718367017 688.4765471313619 506.49241647430887 688.8418577807184 504.54561576494757 689.5627887424333 500.9869934599468 690.2837197041482 497.428371154946 691.9664192787073 491.16053809927877 693.6491188532665 484.89270504361156 696.5786613747724 475.28419564741586 699.5082038962784 465.67568625122016 702.3452607281902 456.26300587081016 705.182317560102 446.8503254904002 709.8135692443391 433.90820407000695 714.4448209285763 420.9660826496137 720.2403558207222 406.85052033005377 726.0358907128682 392.73495801049376 732.5477409278367 377.86566136421067 739.0595911428053 362.9963647179276 746.2450465413044 347.36517086844964 753.4305019398037 331.7339770189717 766.273102235549 305.15781259443816 779.1157025312942 278.58164816990455 806.2871464466944 224.23019758113776 833.4585903620945 169.878746992371 845.5283099850725 144.77277144376774 857.5980296080505 119.66679589516451 857.7009112134244 119.50649600761838 857.8037928187983 119.34619612007225 857.9420481536204 119.21517649915674 858.0803034884425 119.08415687824122 858.245897146157 118.99003239047985 858.4114908038715 118.8959079027185 858.5947984733117 118.84414906776243 858.7781061427519 118.79239023280634 858.9684739735573 118.78600527657505 859.1588418043626 118.77962032034377 859.3452056092623 118.81898033679343 859.5315694141619 118.8583403532431 859.703097720059 118.94115773636833 859.874626025956 119.02397511949357 860.0213495996524 119.145436519096 860.1680731733487 119.26689791869842 860.2814644338474 119.41994399252629 860.3948556943461 119.57299006635415 860.4683243362593 119.74872576940575 860.5417929781726 119.92446147245735 860.5710690005803 120.11267303741442 860.6003450229881 120.3008846023715 860.5837269020926 120.49063316423565 860.5671087811971 120.6803817260998 860.5055623629655 120.86063908954017 860.444015944734 121.04089645298056 860.4440502972479 121.0408253033221 Z" fill="hsl(231, 100%, 64%)"></path><path d="M 660.5033694344758 446.63888017595394 Q 660.5033694344758 446.63888017595394 660.89078159679 450.53661060057925 661.2781937591042 454.4343410252045 662.29697441897 469.5295820333861 663.3157550788357 484.6248230415676 666.7611134941216 510.8818363805998 670.2064719094075 537.138849719632 672.9629084489936 557.8317603384007 675.7193449885799 578.5246709571694 678.181148703274 594.2257591946046 680.642952417968 609.9268474320398 682.1169685992438 618.3250669208696 683.5909847805198 626.7232864096993 685.0723637900285 632.853633222478 686.5537427995372 638.9839800352566 687.6130177878388 642.887028309599 688.6722927761402 646.7900765839414 689.5508228917041 649.7381675522347 690.429353007268 652.6862585205279 691.2614408726649 654.2645188181427 692.093528738062 655.8427791157577 692.5525465805072 657.5618695650589 693.0115644229522 659.2809600143603 693.3512925853248 661.3533855130413 693.6910207476974 663.4258110117222 694.331124050047 664.6335595998942 694.9712273523968 665.8413081880661 695.0622418606699 666.0618134545252 695.153256368943 666.2823187209844 695.1888539822414 666.5181979764943 695.2244515955398 666.7540772320042 695.2025633789062 666.9916211631516 695.1806751622726 667.2291650942992 695.102573259886 667.4545676366452 695.0244713574995 667.6799701789912 694.8946950555963 667.8801309261839 694.7649187536932 668.0802916733767 694.5910106570376 668.243577273385 694.417102560382 668.4068628733932 694.2091702157225 668.5237831594724 694.001237871063 668.6407034455516 693.771366316041 668.7044630051814 693.5414947610191 668.7682225648114 693.3030441412129 668.7751156893904 693.0645935214067 668.7820088139695 692.831422598043 668.7316348747734 692.5982516746793 668.6812609355771 692.3839123527795 668.5765476683187 692.1695730308796 668.4718344010603 691.9865227219032 668.3188677457525 691.8034724129267 668.1659010904448 691.662350009432 667.9735714762812 691.5212276059372 667.7812418621178 691.9830628282531 664.9316930004353 692.444898050569 662.0821441387528 693.5833576098948 657.2194281791312 694.7218171692208 652.3567122195095 702.185665017312 628.9930668911277 709.6495128654033 605.629421562746 718.8877637549813 575.8517695484454 728.1260146445594 546.074117534145 739.8682246688616 514.7818605914083 751.6104346931638 483.48960364867156 762.2539814526187 461.50333583273317 772.8975282120737 439.5170680167948 780.4669151335652 426.2691842692405 788.0363020550568 413.0213005216862 792.1401278051204 406.93800058364553 796.243953555184 400.85470064560485 799.7317852235599 396.76857995651596 803.2196168919357 392.682459267427 803.429398160298 392.7698835219703 803.6391794286602 392.8573077765136 803.8100630646431 393.0071408963215 803.9809467006261 393.1569740161295 804.0950411424333 393.3535284340061 804.2091355842406 393.5500828518827 804.254495113697 393.77277926839093 804.2998546431535 393.9954756848992 804.2717301055511 394.2209977264445 804.2436055679489 394.44651976798986 804.1449416097989 394.65125521729044 804.046277651649 394.8559906665911 803.8874044154146 395.01850366806025 803.7285311791802 395.1810166695294 803.5260827346334 395.2842920690141 803.3236342900866 395.38756746849873 803.0988070428127 395.4207923044108 802.873979795539 395.45401714032283 802.6503132176762 395.41371276357177 802.4266466398134 395.3734083868207 802.2275586811063 395.2637946762917 802.0284707223991 395.15418096576263 801.8748059446783 394.9867345058833 801.7211411669575 394.8192880460039 801.6289883130139 394.61154052532515 801.5368354590704 394.40379300464633 801.515842957038 394.1774956434232 801.4948504550056 393.9511982822001 801.5472162253886 393.7300444738894 801.5995819957717 393.50889066557875 801.7198233285878 393.3160352722896 801.840064661404 393.1231798790004 802.0155922573667 392.978814911319 802.1911198533295 392.8344499436376 802.4035559268068 392.7536904517888 802.6159920002841 392.67293095994006 802.8430944383051 392.66423248403896 803.0701968763262 392.65553400813786 803.288187993681 392.7198072809074 803.506179111036 392.784080553677 803.6922351801934 392.9145961464917 803.8782912493509 393.0451117393065 804.0129321507562 393.22820463514597 804.1475730521615 393.4112975309855 804.2167018478958 393.6277978553235 804.28583064363 393.8442981796615 804.2822095305315 394.0715382913893 804.2785884174331 394.298778403117 804.2025965269993 394.51296620255107 804.1266046365655 394.7271540019852 803.9861983397846 394.9058639699848 803.8457920430037 395.0845739379844 803.6556719162124 395.209095093725 803.4655517894212 395.33361624946565 803.2456234600813 395.3909111950709 803.0256951307415 395.4482061406762 802.7989851529904 395.43227608021687 802.5722751752394 395.4163460197575 802.5724802167474 395.4163945703866 802.5726852582553 395.41644312101573 800.5129680249502 398.8775572539769 798.453250791645 402.3386713869381 794.427496945446 408.3540630880992 790.401743099247 414.3694547892604 782.9135046322438 427.5536821855312 775.4252661652406 440.73790958180206 764.8868550080624 462.6262570979568 754.3484438508842 484.51460461411153 742.7108933475388 515.7488473555736 731.0733428441932 546.9830900970358 721.9374846337914 576.8046393588604 712.8016264233895 606.626188620685 705.5278567258019 629.8678291103226 698.2540870282143 653.1094695999602 697.2820943718343 658.1719249469834 696.3101017154545 663.2343802940067 695.6406160269589 664.5377579958929 694.9711303384635 665.8411356977792 695.0621668968081 666.0616318616851 695.1532034551527 666.2821280255909 695.1888246561987 666.51800372016 695.2244458572446 666.7538794147291 695.2025813951136 666.9914255335107 695.1807169329825 667.2289716522921 695.1026375712406 667.4543820037013 695.0245582094988 667.6797923551104 694.8948019243192 667.8799660789325 694.7650456391397 668.0801398027547 694.5911538719135 668.2434427927561 694.4172621046874 668.4067457827575 694.2093414530962 668.5236868614866 694.001420801505 668.6406279402157 693.7715556235883 668.7044104866823 693.5416904456716 668.7681930331487 693.3032405163701 668.7751100027552 693.0647905870687 668.7820269723618 692.8316146274769 668.7316763505098 692.5984386678851 668.6813257286578 692.3840888757303 668.5766338958551 692.1697390835755 668.4719420630524 691.9866734788487 668.3189937135403 691.803607874122 668.1660453640283 691.6624662383715 667.9737298630668 691.5213246026209 667.7814143621052 691.3638664077847 666.9708121151152 691.2064082129485 666.1602098681251 690.696004715576 664.9877064824309 690.1856012182036 663.8152030967368 690.1087108901446 661.8711432136092 690.0318205620856 659.9270833304818 689.8029234564497 658.4779669742259 689.5740263508138 657.0288506179701 688.7874908089614 655.2233038581619 688.000955267109 653.4177570983536 687.1063170255419 650.4393064149895 686.2116787839748 647.4608557316252 685.1341502389532 643.525254617647 684.0566216939318 639.5896535036687 682.5456675678183 633.3823564776599 681.0347134417049 627.1750594516509 679.5387429654047 618.7558377274324 678.0427724891047 610.3366160032141 675.5517296106053 594.6088487094885 673.060686732106 578.8810814157629 670.2696036567334 558.1901212534914 667.4785205813608 537.4991610912199 663.977046165264 511.16104735124213 660.4755717491672 484.82293361126443 659.3966122738402 469.7930633828737 658.3176527985131 454.763193154483 657.8400030101436 450.8755414990302 657.3623532217742 446.9878898435773 657.3642912012258 446.79742482603535 657.3662291806772 446.6069598084934 657.4136935271375 446.42249351214986 657.4611578735978 446.2380272158063 657.5513899570205 446.07028083047175 657.6416220404432 445.9025344451372 657.7693775679002 445.7612573986088 657.8971330953572 445.6199803520804 658.0549869095902 445.5133836729403 658.2128407238232 445.40678699380015 658.3916183537322 445.3410660860484 658.5703959836412 445.27534517829656 658.7597068649761 445.2543197441795 658.949017746311 445.23329431006243 659.1378591217539 445.25818634879886 659.3267004971967 445.2830783875353 659.5040968971341 445.35244117266427 659.6814932970716 445.4218039577933 659.8371344344042 445.53160612098424 659.9927755717368 445.64140828417516 660.1176155762503 445.7852681185443 660.2424555807636 445.9291279529134 660.3292387455298 446.098684318128 660.416021910296 446.2682406833425 660.4597043937013 446.4536389554897 660.5033868771065 446.63903722763683 660.5033781557911 446.6389587017954 Z" fill="hsl(231, 100%, 64%)"></path></svg>