<svg xmlns="http://www.w3.org/2000/svg" version="1.1" xmlns:xlink="http://www.w3.org/1999/xlink" viewBox="0 0 2400 800" style="overflow: hidden; display: block;" width="2400" height="800"><defs></defs><g id="two-0" transform="matrix(1 0 0 1 0 0)" opacity="1"></g><path d="M 449.0117090939973 348.8736842438495 Q 449.0117090939973 348.8736842438495 451.9422771687726 348.18786600017665 454.8728452435479 347.50204775650377 483.05707989435984 337.0268805322737 511.2413145451718 326.5517133080436 653.9825690026896 286.31047935544325 796.7238234602075 246.06924540284297 965.4645713311736 213.63792600313934 1134.2053192021397 181.2066066034357 1243.1564976989835 165.23917906468634 1352.1076761958273 149.271751525937 1486.0349008399417 136.64731986722546 1619.9621254840558 124.02288820851392 1711.930796660943 118.66019473595907 1803.8994678378301 113.2975012634042 1883.905166017948 114.67016520619134 1963.9108641980658 116.04282914897847 2026.3952274668218 120.27949525986116 2088.879590735578 124.51616137074386 2130.051757029709 129.2400141797419 2171.22392332384 133.96386698873994 2198.272386898193 140.3639315609064 2225.3208504725458 146.76399613307288 2243.397884187789 152.4108305800923 2261.4749179030323 158.05766502711168 2270.6158317603213 161.18836664516363 2279.7567456176107 164.31906826321554 2284.4169507758515 166.398211452664 2289.0771559340924 168.47735464211246 2289.2465329432525 168.58893339443648 2289.415909952412 168.7005121467605 2289.5407916926 168.86033373532024 2289.665673432788 169.02015532387995 2289.732984752841 169.21148638616435 2289.800296072894 169.40281744844876 2289.802989459834 169.60562557173017 2289.8056828467734 169.8084336950116 2289.7434763022766 170.00148481524633 2289.6812697577793 170.19453593548107 2289.5606763234755 170.35761754941996 2289.4400828891717 170.52069916335887 2289.273728729466 170.63673658297319 2289.1073745697604 170.75277400258753 2288.912677009087 170.80961807941276 2288.717979448414 170.866462156238 2288.5153233727715 170.8581613004251 2288.312667297129 170.84986044461223 2288.123270851132 170.7772837579561 2287.933874405135 170.70470707129996 2287.7775674466766 170.57545335205185 2287.6212604882176 170.4461996328037 2287.514408397108 170.27380177948854 2287.4075563059987 170.10140392617336 2287.3613465243843 169.90391203954186 2287.3151367427695 169.7064201529104 2287.334407446983 169.5045116856257 2287.353678151196 169.30260321834098 2287.4364116934194 169.11741804022643 2287.519145235643 168.93223286211187 2287.6566793921656 168.7831599102002 2287.7942135486887 168.63408695828852 2287.972148457018 168.53673420999633 2288.150083365347 168.43938146170413 2288.3497891936104 168.40394177547626 2288.549495021873 168.36850208924835 2288.7500625171333 168.39868600958798 2288.950630012394 168.4288699299276 2289.1310597049533 168.52151719240743 2289.311489397513 168.61416445488723 2289.452890250932 168.75957486666908 2289.5942911043508 168.90498527845097 2289.6818584119496 169.0879343310367 2289.7694257195485 169.27088338362242 2289.7939911611065 169.4722162629124 2289.8185566026646 169.67354914220243 2289.7775481699655 169.87218624258833 2289.7365397372664 170.07082334297425 2289.6342510240397 170.24596730761056 2289.531962310813 170.42111127224686 2289.3791029723343 170.5544244818026 2289.2262436338556 170.68773769135836 2289.038818083215 170.76526221760182 2288.851392532575 170.84278674384527 2288.6490242744003 170.85640574841423 2288.4466560162255 170.8700247529832 2288.2505330605672 170.81831232250426 2288.054410104909 170.7665998920253 2288.054581798304 170.76667659796306 2288.054753491699 170.76675330390083 2283.4987572137106 168.73011403254117 2278.942760935722 166.69347476118148 2269.8340274568473 163.57534971363708 2260.725293977972 160.4572246660927 2242.7327157395557 154.83628426259367 2224.74013750114 149.21534385909465 2197.837066974971 142.84444581337078 2170.933996448802 136.47354776764695 2129.8209871479557 131.76021899611948 2088.7079778471098 127.04689022459202 2026.2875104420223 122.8198719999207 1963.8670430369345 118.59285377524937 1883.9578535561704 117.22776185094708 1804.0486640754064 115.86266992664477 1712.1272531871668 121.23499345397596 1620.205842298927 126.60731698130716 1486.347658717651 139.2417488517393 1352.4894751363752 151.87618072217143 1243.6005975720986 167.858496306051 1134.7117200078221 183.84081188993056 966.0908699776228 216.2792772258589 797.4700199474235 248.7177425617872 654.8524925212247 288.9687468198649 512.2349650950259 329.2197510779427 483.9161253859441 339.8054977788835 455.59728567686227 350.3912444798243 452.68774678752624 351.16545736408113 449.7782078981902 351.939670248338 449.5891989357451 351.9632560658358 449.40018997330003 351.9868418833336 449.21102898400443 351.9645080793514 449.0218679947088 351.94217427536915 448.8435490241483 351.8752188916436 448.66523005358766 351.8082635079181 448.5081170087094 351.7005779944974 448.35100396383115 351.59289248107666 448.2242282621854 351.4507355250603 448.0974525605397 351.3085785690439 448.0083824118627 351.1402123393948 447.9193122631857 350.9718461097456 447.8731244287035 350.7870560596416 447.8269365942213 350.6022660095375 447.8263155130441 350.41179214537294 447.8256944318669 350.2213182812084 447.8706762012619 350.03623095291795 447.9156579706569 349.85114362462747 448.0036282480734 349.6822001164276 448.0915985254899 349.5132566082278 448.21744447427125 349.37027592475295 448.34329042305257 349.22729524127806 448.4996978707427 349.11858742656966 448.65610531843276 349.00987961186127 448.8339838568231 348.9417627692178 449.0118623952135 348.8736459265743 449.0117857446054 348.8736650852119 Z" fill="hsl(0, 0%, 100%)"></path><path d="M 504.67003595110293 351.47867698161446 Q 504.67003595110293 351.47867698161446 508.33699147623076 350.0607934804736 512.0039470013586 348.6429099793327 536.9587526217795 340.01128555060734 561.9135582422005 331.379661121882 626.5614586982656 312.3852688670314 691.2093591543306 293.3908766121808 817.266083410467 264.8784546038535 943.3228076666032 236.3660325955262 1085.994905030614 216.21809710072404 1228.6670023946247 196.07016160592187 1381.313091291584 186.78005273848174 1533.959180188543 177.48994387104162 1676.2211257023314 175.0055352180431 1818.4830712161197 172.52112656504457 1900.1115234964814 172.19762105747398 1981.739975776843 171.8741155499034 2060.9781839603847 173.92834863050376 2140.216392143926 175.98258171110416 2183.371141536183 176.8565017418295 2226.52589092844 177.73042177255482 2250.0145027603016 179.56443527557332 2273.5031145921635 181.39844877859184 2284.9644865193395 182.9113843978225 2296.4258584465156 184.42432001705316 2301.369791557947 185.814171576214 2306.3137246693786 187.20402313537485 2306.4976406766273 187.2900722607014 2306.6815566838764 187.37612138602796 2306.828368202923 187.51639229379958 2306.975179721969 187.6566632015712 2307.0695155480144 187.83646949071624 2307.16385137406 188.0162757798613 2307.195834521215 188.21679168444206 2307.227817668371 188.4173075890228 2307.1940994926863 188.61753904089863 2307.1603813170013 188.81777049277443 2307.064492120371 188.9967532060779 2306.9686029237414 189.17573591938137 2306.820582330366 189.31473035678277 2306.6725617369902 189.4537247941842 2306.487907542069 189.5381782013967 2306.303253347148 189.6226316086092 2306.101298893633 189.64370169160406 2305.8993444401185 189.6647717745989 2305.701234412604 189.6202524901246 2305.50312438509 189.57573320565032 2305.3296009557525 189.47028573454327 2305.1560775264156 189.36483826343624 2305.025308644113 189.2095029837568 2304.8945397618104 189.05416770407737 2304.8202169630385 188.8652082606125 2304.745894164267 188.6762488171476 2304.7357990656774 188.47344931350852 2304.7257039670876 188.27064980986944 2304.780893528167 188.07524340762103 2304.836083089246 187.8798370053726 2304.950778948381 187.71228280641253 2305.065474807516 187.54472860745247 2305.2276682779775 187.4225695806419 2305.3898617484397 187.3004105538313 2305.5825711310563 187.23643678152416 2305.7752805136734 187.17246300921698 2305.9783290852147 187.1733725622612 2306.1813776567565 187.17428211530543 2306.3735061781827 187.23997976325725 2306.565634699609 187.30567741120907 2306.7267272640092 187.42928459298543 2306.8878198284096 187.55289177476175 2307.001010001767 187.7214667858015 2307.114200175125 187.89004179684125 2307.16763691641 188.08593478898905 2307.2210736576953 188.28182778113688 2307.209162125989 188.48452870640418 2307.197250594283 188.68722963167147 2307.1212379301 188.8755156496749 2307.045225265917 189.06380166767832 2306.913070015262 189.21795918263024 2306.780914764607 189.37211669758216 2306.6064536171098 189.4760053769735 2306.4319924696124 189.5798940563648 2306.2334915534684 189.62263672803928 2306.034990637325 189.66537939971377 2305.8332330508542 189.64250089466415 2305.6314754643836 189.61962238961453 2305.631656634329 189.6196735583053 2305.6318378042743 189.61972472699605 2300.8625754704935 188.26780535912798 2296.0933131367124 186.91588599125987 2284.7001075457415 185.4129426154247 2273.3069019547706 183.90999923958952 2249.8907719930144 182.08319423169945 2226.474642031258 180.2563892238094 2183.31269945048 179.38733271605736 2140.1507568697016 178.51827620830528 2060.9504768170573 176.4713880219 1981.7501967644134 174.4244998354947 1900.1391196241543 174.7573786643469 1818.5280424838952 175.09025749319912 1676.3224658774727 177.5856499327947 1534.1168892710502 180.08104237239027 1381.5757463755099 189.3788266217731 1229.0346034799697 198.67661087115593 1086.4743930417758 218.82952711492618 943.914182603582 238.98244335869643 817.9498919482814 267.5065964716884 691.9856012929807 296.0307495846804 627.4164810819698 315.05000450895653 562.8473608709587 334.0692594332327 537.97872445189 342.7389613175261 513.1100880328212 351.4086632018196 509.4769230135154 352.9108244089307 505.84375799420957 354.4129856160418 505.65966891273126 354.46189255575473 505.47557983125296 354.51079949546767 505.2851358207664 354.5142284226214 505.0946918102799 354.51765734977516 504.9089614856227 354.4754089749624 504.72323116096544 354.4331606001497 504.553009177333 354.34769040089964 504.38278719370055 354.26222020164954 504.23796686077947 354.1384957099583 504.09314652785844 354.01477121826713 503.9821448102025 353.85998330740506 503.87114309254656 353.705195396543 503.8004114152013 353.52834034716204 503.72967973785603 353.3514852977811 503.70332902923207 353.1628419336608 503.6769783206081 352.9741985695405 503.69654008512873 352.78473085186687 503.71610184964936 352.59526313419326 503.78043915664153 352.4159829356196 503.8447764636337 352.23670273704596 503.9501500257922 352.07802983113686 504.0555235879507 351.9193569252277 504.19580908889185 351.7905133887298 504.336094589833 351.6616698522318 504.50313862965083 351.57014407754 504.6701826694687 351.4786183028482 504.67010931028585 351.4786476422313 Z" fill="hsl(0, 0%, 100%)"></path></svg>