<svg xmlns="http://www.w3.org/2000/svg" version="1.1" xmlns:xlink="http://www.w3.org/1999/xlink" viewBox="0 0 2400 800" style="overflow: hidden; display: block;" width="2400" height="800"><defs></defs><g id="two-0" transform="matrix(1 0 0 1 0 0)" opacity="1"></g><path d="M 195.47328573557843 464.660456565641 Q 195.47328573557843 464.660456565641 243.86028324003212 442.79841674939337 292.2472807444858 420.93637693314565 336.7442197228413 404.28093345243644 381.24115870119687 387.62548997172723 475.93554277018507 348.4162604324931 570.6299268391732 309.207030893259 697.5271108543618 273.49477389814945 824.4242948695504 237.7825169030399 954.0534738165425 212.22452324880436 1083.6826527635344 186.6665295945688 1225.9675005805439 172.54311733957616 1368.252348397553 158.41970508458348 1480.323020722114 151.9769952236037 1592.3936930466748 145.53428536262388 1691.6563149540152 145.46003178851814 1790.9189368613556 145.3857782144124 1847.3003360681782 149.15515050729067 1903.6817352750006 152.92452280016894 1938.411245504425 159.27701454760398 1973.1407557338493 165.62950629503905 2000.3533332177797 177.15852429953017 2027.56591070171 188.6875423040213 2035.8877706737053 195.40986728860753 2044.2096306457006 202.1321922731938 2061.0608070023227 226.56496131103532 2077.9119833589452 250.99773034887684 2089.634974604536 283.1624420827669 2101.357965850127 315.32715381665696 2116.644580690543 385.11407704253963 2131.9311955309595 454.90100026842237 2138.3944041881487 514.8929548480147 2144.8576128453374 574.884909427607 2164.0767978167246 675.0788759887814 2183.295982788112 775.272842549956 2183.291094133647 775.2738918628381 2183.2862054791826 775.2749411757204 2183.281316824718 775.2759904886027 2183.2764281702534 775.2770398014849 2159.587312727142 675.5650889332207 2135.8981972840306 575.8531380649565 2129.514826845805 516.3365716777439 2123.131456407579 456.82000529053136 2108.012123556713 387.6006956053054 2092.8927907058464 318.38138592007954 2081.67793028862 287.1986962034646 2070.463069871393 256.0160064868497 2054.453408943428 232.50581025675712 2038.4437480154625 208.99561402666453 2031.2056278728169 202.9364515138911 2023.9675077301713 196.87728900111767 1997.7246609962367 185.64039545100127 1971.4818142623021 174.40350190088486 1937.280298630781 168.10382556690814 1903.0787829992603 161.8041492329314 1847.000611134385 158.02165890624715 1790.9224392695096 154.23916857956291 1691.9089349798617 154.27394509282695 1592.8954306902137 154.30872160609098 1481.0021955336224 160.69308084743966 1369.1089603770313 167.07744008878836 1227.2221042993015 181.08070125657406 1085.3352482215719 195.08396242435973 956.0159651725999 220.4827396068119 826.696682123628 245.88151678926408 700.2228668721605 281.32769638430966 573.749051620693 316.77387597935524 478.8676983498466 355.8912462297433 383.9863450790003 395.0086164801313 339.5328602159633 411.42429477654457 295.07937535292626 427.83997307295783 245.28012610750204 446.2594665056115 195.48087686207782 464.6789599382652 195.47708129882812 464.6697082519531 Z" fill="hsl(0, 0%, 100%)"></path><path d="M 2236.9838778784083 627.1700531256012 Q 2236.9838778784083 627.1700531256012 2238.4241852437553 628.313858816201 2239.864492609103 629.4576645068007 2239.9692896987453 630.78301257622 2240.074086788388 632.1083606456394 2241.3967606252622 633.2214264689793 2242.7194344621366 634.3344922923192 2242.8666539766327 635.8192522979795 2243.0138734911293 637.3040123036398 2242.5433364162923 639.0916121544481 2242.0727993414553 640.8792120052564 2241.0735045585566 640.7620486966284 2240.074209775658 640.6448853880006 2239.3479364051673 643.1385587505363 2238.621663034677 645.6322321130718 2237.8460625425632 649.0076358813554 2237.0704620504494 652.383039649639 2236.19051424436 652.1458031163029 2235.3105664382715 651.9085665829666 2233.609894852685 655.5842060081168 2231.9092232670982 659.2598454332671 2227.099649465197 668.1227881634073 2222.2900756632966 676.9857308935476 2218.571001353276 683.4568998522417 2214.8519270432557 689.9280688109358 2209.89366978035 698.811735850401 2204.935412517445 707.6954028898663 2202.3691265541283 711.7023595067369 2199.8028405908112 715.7093161236077 2196.094635722534 721.9970681867251 2192.386430854256 728.2848202498426 2189.5842955931694 731.2457244680436 2186.782160332083 734.2066286862445 2185.9257501852862 736.142583938689 2185.06934003849 738.0785391911335 2183.141033607587 740.3532531263861 2181.212727176684 742.6279670616386 2180.253223192253 742.3149308968943 2179.2937192078216 742.00189473215 2178.4801249212223 742.9680915869349 2177.666530634623 743.9342884417196 2175.4954464834364 744.0875781619787 2173.324362332249 744.2408678822379 2166.2739010594487 740.4692372316124 2159.223439786648 736.6976065809868 2142.564146682874 724.1054765757442 2125.904853579099 711.5133465705018 2099.6577498852857 700.4074639002099 2073.410646191472 689.3015812299179 2043.1663460541436 680.5575653443944 2012.9220459168148 671.813549458871 1996.2790249106502 666.7622670495605 1979.6360039044855 661.7109846402501 1971.2260063724498 661.7990978461767 1962.8160088404138 661.8872110521032 1958.364470148403 660.5670117915006 1953.912931456392 659.2468125308981 1953.2462053118968 659.0727924207054 1952.5794791674016 658.8987723105125 1951.3252850917602 658.6841058111918 1950.0710910161188 658.4694393118709 1949.1090579787085 658.1685074232233 1948.1470249412982 657.8675755345757 1947.5866409085356 658.7719993696662 1947.0262568757732 659.6764232047567 1945.7091917435214 660.9213456400948 1944.3921266112695 662.1662680754331 1941.5453935021014 663.8937096803006 1938.6986603929336 665.621151285168 1937.0665682855315 665.5052896545224 1935.4344761781294 665.3894280238767 1934.5753635026113 666.426353653577 1933.7162508270928 667.4632792832773 1931.7478781792488 667.6413245053566 1929.779505531405 667.8193697274357 1929.6647497531162 666.5622563052103 1929.5499939748277 665.3051428829849 1927.114750260636 666.5594875894451 1924.6795065464441 667.8138322959052 1924.6794640510498 667.8088324764942 1924.6794215556552 667.8038326570834 1924.6793790602605 667.7988328376725 1924.6793365648662 667.7938330182616 1924.7834608771848 666.5091750511167 1924.8875851895034 665.2245170839719 1927.3120139946686 663.9672217517833 1929.736442799834 662.7099264195947 1930.30725626835 662.8665704695356 1930.8780697368663 663.0232145194767 1932.5583235196245 661.5423551917397 1934.2385773023825 660.0614958640026 1935.1670683492773 659.924051177764 1936.0955593961721 659.7866064915254 1938.3054913260685 658.9748650854581 1940.515423255965 658.1631236793907 1941.737542694255 656.8690450006134 1942.9596621325447 655.574966321836 1944.938462697061 653.9617886686075 1946.9172632615769 652.348611015379 1948.4944179669378 652.0476806733069 1950.0715726722988 651.7467503312348 1951.3569363974111 651.5322657819813 1952.6423001225235 651.3177812327277 1954.5586680120175 651.1651670127942 1956.4750359015115 651.0125527928608 1959.7285010359171 652.2106935627719 1962.9819661703227 653.4088343326831 1972.4777712290834 653.5838333090627 1981.9735762878443 653.7588322854423 1998.5766824043667 658.9294052235516 2015.1797885208891 664.099978161661 2045.8094456022668 673.1735318714739 2076.4391026836443 682.2470855812867 2103.3406165168144 694.0140971980388 2130.242130349985 705.7811088147911 2146.418958297646 718.4291305998913 2162.5957862453065 731.0771523849915 2168.154795522781 734.8581443286846 2173.7138048002557 738.6391362723776 2174.082023668566 738.7710248072401 2174.4502425368755 738.9029133421026 2176.175528875828 737.3513236796248 2177.900815214781 735.7997340171469 2179.458976736449 735.4649312879643 2181.0171382581175 735.1301285587817 2179.1106009271975 734.8440702071771 2177.2040635962776 734.5580118555723 2178.9087240357176 731.4150511794836 2180.613384475158 728.2720905033949 2182.911020044291 726.0902975917743 2185.2086556134236 723.9085046801536 2189.096665720417 717.54276930217 2192.984675827411 711.1770339241865 2195.539743227827 707.4804689202626 2198.094810628242 703.7839039163387 2203.2718899303345 694.9361454969705 2208.4489692324264 686.0883870776025 2212.368784232802 679.8212660437321 2216.288599233178 673.5541450098616 2221.592410523812 664.7296757873206 2226.896221814445 655.9052065647796 2230.2519133670894 652.027735116119 2233.607604919733 648.1502636674584 2235.245563081983 647.8698641019257 2236.8835212442336 647.5894645363929 2236.1295012414453 645.8868645168452 2235.375481238657 644.1842644972975 2237.188088965314 641.6425514008181 2239.0006966919705 639.1008383043388 2240.5191228969434 638.9620919268643 2242.0375491019163 638.8233455493897 2241.5668301084847 638.0717608299982 2241.096111115053 637.3201761106067 2241.2219284419616 636.2657515592092 2241.3477457688696 635.2113270078117 2240.1525151836004 633.7852098202158 2238.957284598331 632.3590926326198 2239.040683103989 631.1454395878118 2239.124081609647 629.9317865430039 2238.046908506244 628.5579907321389 2236.9697354028417 627.1841949212738 2236.976806640625 627.1771240234375 Z" fill="hsl(0, 0%, 100%)"></path></svg>